<svg width="40" height="40" viewBox="0 0 40 40" fill="none" xmlns="http://www.w3.org/2000/svg">
<circle cx="20" cy="20" r="20" fill="#4A9B8D"/>
<path d="M20.5 15.0415C20.3374 15.0142 20.1704 15 20 15C18.3431 15 17 16.3431 17 18C17 19.6569 18.3431 21 20 21C21.6569 21 23 19.6569 23 18C23 17.8296 22.9858 17.6626 22.9585 17.5" stroke="#313340" stroke-width="1.5" stroke-linecap="round"/>
<path d="M13 23.2161C12.3525 21.5622 12 19.8013 12 18.1433C12 13.6459 15.5817 10 20 10C24.4183 10 28 13.6459 28 18.1433C28 22.6055 25.4467 27.8124 21.4629 29.6744C20.5343 30.1085 19.4657 30.1085 18.5371 29.6744C17.2647 29.0797 16.1383 28.1439 15.1944 27" stroke="#313340" stroke-width="1.5" stroke-linecap="round"/>
</svg>
