<svg width="49" height="60" viewBox="0 0 49 60" fill="none" xmlns="http://www.w3.org/2000/svg">
<path d="M14.8553 25.2889C14.8553 19.9487 19.1733 15.6196 24.4999 15.6196C29.8265 15.6196 34.1446 19.9487 34.1446 25.2889C34.1446 30.6291 29.8265 34.9582 24.4999 34.9582C19.1733 34.9582 14.8553 30.6291 14.8553 25.2889Z" fill="#4A9B8D"/>
<path fill-rule="evenodd" clip-rule="evenodd" d="M0.0872532 21.949C1.10703 9.54566 11.4455 0 23.8591 0H25.1409C37.5545 0 47.893 9.54566 48.9127 21.949C49.4618 28.627 47.4043 35.258 43.1735 40.4454L28.9497 57.8852C26.6499 60.7049 22.3501 60.7049 20.0503 57.8852L5.8265 40.4454C1.59574 35.2581 -0.461803 28.627 0.0872532 21.949ZM24.4999 11.1569C16.7149 11.1569 10.4039 17.484 10.4039 25.2889C10.4039 33.0938 16.7149 39.421 24.4999 39.421C32.2849 39.421 38.5959 33.0938 38.5959 25.2889C38.5959 17.484 32.2849 11.1569 24.4999 11.1569Z" fill="#4A9B8D"/>
</svg>
