<svg width="51" height="50" viewBox="0 0 51 50" fill="none" xmlns="http://www.w3.org/2000/svg">
<g clip-path="url(#clip0_85_677)">
<path d="M25.5 0C11.4393 0 0 11.215 0 25C0 38.785 11.4393 50 25.5 50C39.5607 50 51 38.785 51 25C51 11.215 39.5607 0 25.5 0ZM50.0151 25C50.0151 38.2526 39.0177 49.0344 25.5 49.0344C11.9823 49.0344 0.984891 38.2526 0.984891 25C0.984891 11.7474 11.9823 0.96558 25.5 0.96558C39.0177 0.96558 50.0151 11.7474 50.0151 25Z" fill="white"/>
<path d="M11.1248 13.5836C11.5499 14.0071 12.0033 14.3012 12.4727 14.4588C12.7302 14.545 12.9935 14.5888 13.255 14.5888C13.4736 14.5888 13.6948 14.5583 13.9116 14.4981C14.3881 14.3664 14.8554 14.0817 15.2998 13.6519C15.5099 13.4495 15.7092 13.2176 15.8924 12.9627C16.0768 12.7056 16.2207 12.4625 16.3208 12.2405C16.3808 12.1078 16.4051 11.9025 16.1804 11.6791L14.7836 10.289C14.6796 10.1857 14.5685 10.1328 14.4514 10.1321C14.3371 10.1321 14.2263 10.1833 14.122 10.2845L13.1485 11.2245C13.0385 11.3306 12.9821 11.4413 12.9814 11.5537C12.9803 11.656 13.0271 11.7568 13.1157 11.8454C13.2121 11.9414 13.3193 11.9901 13.4372 11.9901C13.5476 11.9869 13.6565 11.9344 13.7605 11.8339L14.3953 11.2206L15.288 12.1088C15.1137 12.4258 14.8972 12.7102 14.6439 12.9557C14.2031 13.3812 13.753 13.5843 13.3032 13.5581C12.8488 13.5328 12.3819 13.2845 11.9154 12.8205C11.4592 12.3666 11.2131 11.9099 11.1834 11.4626C11.1541 11.0228 11.347 10.599 11.7564 10.2039C11.9415 10.025 12.1347 9.88172 12.3312 9.7777C12.5255 9.67473 12.742 9.60223 12.9806 9.56126C13.1378 9.52448 13.2468 9.44848 13.3047 9.33536C13.3586 9.22889 13.3686 9.11472 13.3343 8.99599C13.3011 8.88181 13.2357 8.7876 13.1396 8.71616C13.0378 8.64051 12.9092 8.61249 12.7688 8.63525C12.4423 8.68639 12.1322 8.79216 11.8464 8.95046C11.5642 9.10701 11.3038 9.29964 11.0723 9.52343C10.6497 9.93145 10.3668 10.3738 10.2307 10.8378C10.0942 11.305 10.1035 11.7803 10.2578 12.25C10.4107 12.7151 10.7029 13.1641 11.1255 13.585L11.1248 13.5836Z" fill="white"/>
<path d="M17.7869 10.9969C17.9052 11.2882 18.1027 11.3495 18.2474 11.3495C18.3224 11.3495 18.4042 11.3327 18.49 11.2995C18.6497 11.2371 18.7568 11.1447 18.8083 11.0242C18.859 10.9047 18.8526 10.764 18.7883 10.6057L18.1188 8.95923L18.829 8.68185C19.0215 8.60655 19.1898 8.57398 19.3284 8.58554C19.462 8.59569 19.6092 8.66644 19.766 8.79532L21.101 9.88698C21.206 9.97909 21.3143 10.0362 21.4225 10.0568C21.5333 10.0782 21.6551 10.0631 21.7851 10.0117C22.0452 9.9094 22.1013 9.74234 22.1023 9.62011C22.1038 9.45795 22.0248 9.31226 21.869 9.18758L20.7695 8.28294C20.5769 8.12533 20.3833 8.01992 20.1915 7.96808C20.4198 7.7646 20.5787 7.5303 20.6652 7.26973C20.7813 6.9202 20.7566 6.5374 20.5919 6.13184C20.3872 5.62891 20.0586 5.29514 19.6146 5.14034C19.1762 4.98799 18.6575 5.02651 18.0731 5.25486L16.3191 5.94026C16.1573 6.00365 16.0487 6.09681 15.9958 6.21659C15.9433 6.33672 15.9493 6.47786 16.0136 6.63651L17.7862 10.9969H17.7869ZM19.1401 6.03237C19.3502 6.09751 19.5113 6.26422 19.6188 6.52864C19.7274 6.79517 19.7285 7.02702 19.6217 7.21754C19.5106 7.41612 19.2788 7.58528 18.9319 7.72117L17.7959 8.16526L17.1507 6.57838L18.2867 6.13429C18.6329 5.99875 18.9197 5.96443 19.1401 6.03272V6.03237Z" fill="white"/>
<path d="M23.654 9.49849C23.7511 9.592 23.8905 9.63929 24.0673 9.63929L26.9616 9.60776C27.2588 9.60426 27.4274 9.4379 27.4242 9.15177C27.4228 9.01063 27.381 8.8996 27.3002 8.8222C27.2199 8.74515 27.1056 8.70593 26.9516 8.70593L24.5435 8.73254L24.526 7.18664L26.7598 7.16177C26.9087 7.16037 27.0252 7.11904 27.1063 7.03814C27.1852 6.95864 27.2245 6.84691 27.2227 6.70612C27.2209 6.56323 27.1781 6.45116 27.0952 6.37341C27.0152 6.29846 26.9019 6.26028 26.7497 6.26028L24.516 6.28445L24.4992 4.824L26.9073 4.79808C27.2045 4.79458 27.3731 4.62542 27.3695 4.33403C27.3678 4.19323 27.3245 4.08291 27.2409 4.00621C27.1609 3.93336 27.048 3.89624 26.9062 3.89624L24.0133 3.92776C23.6511 3.93161 23.4453 4.13755 23.4493 4.49303L23.5018 9.08558C23.5036 9.26419 23.555 9.40288 23.6543 9.49814L23.654 9.49849Z" fill="white"/>
<path d="M29.2264 10.0361L31.9528 10.9572C32.0217 10.9806 32.0874 10.9925 32.1482 10.9925C32.2089 10.9925 32.2657 10.9806 32.3175 10.9568C32.4211 10.9088 32.4975 10.8157 32.5454 10.6808C32.6404 10.4098 32.534 10.2 32.2528 10.1047L29.9765 9.33526L30.4906 7.87375L32.6026 8.58752C32.7437 8.63515 32.8676 8.63445 32.9705 8.58542C33.0723 8.53709 33.1477 8.44463 33.1949 8.31084C33.2895 8.04011 33.1831 7.82998 32.9026 7.73506L30.7903 7.0213L31.2762 5.6407L33.5528 6.41015C33.6925 6.45743 33.8154 6.45603 33.919 6.40665C34.0222 6.35726 34.099 6.2627 34.1472 6.12611C34.194 5.99303 34.1912 5.875 34.1387 5.77518C34.0872 5.67747 33.9908 5.60462 33.8522 5.55769L31.1261 4.63589C30.7839 4.52032 30.5195 4.6464 30.4009 4.98262L28.8738 9.32475C28.7541 9.66517 28.8795 9.91804 29.2267 10.0364L29.2264 10.0361Z" fill="white"/>
<path d="M33.8433 12.0373C33.9641 12.1402 34.0898 12.1861 34.2148 12.1735C34.3377 12.1612 34.4549 12.0936 34.5628 11.9718L36.8637 9.37833L36.5469 13.9597C36.5386 14.0857 36.5461 14.1859 36.5701 14.2654C36.5965 14.353 36.6576 14.4381 36.7515 14.5176C36.8387 14.5925 36.9369 14.6304 37.0438 14.6304C37.0623 14.6304 37.0813 14.629 37.1013 14.6269C37.2231 14.6114 37.3356 14.5459 37.4364 14.4328L40.6565 10.8038C40.8712 10.5614 40.8551 10.3033 40.6118 10.0959C40.3685 9.88896 40.106 9.90892 39.8909 10.1506L37.595 12.7388L37.9068 8.16759C37.9193 8.04571 37.9147 7.94625 37.8933 7.8706C37.8686 7.78759 37.8107 7.70704 37.7214 7.63139C37.6103 7.53613 37.486 7.49515 37.3538 7.50951C37.2252 7.52282 37.1048 7.59111 36.9966 7.71334L33.7972 11.3189C33.5793 11.5652 33.5961 11.8268 33.843 12.0376L33.8433 12.0373Z" fill="white"/>
<path d="M10.1738 34.0863C10.3725 33.9437 10.5914 33.9059 10.8251 33.9735C11.0723 34.0453 11.3056 34.226 11.5181 34.5101C11.6603 34.6995 11.77 34.8939 11.8443 35.0879C11.9182 35.2806 11.9611 35.4938 11.9718 35.725C11.985 35.8896 12.0436 36.0101 12.1454 36.0836C12.2429 36.1544 12.354 36.1824 12.4744 36.1673C12.5902 36.1526 12.6909 36.1018 12.7741 36.0164C12.8609 35.9271 12.9035 35.8108 12.901 35.6746C12.907 35.3804 12.8559 35.0848 12.7495 34.7958C12.6427 34.5087 12.488 34.2288 12.2894 33.9637C12.0368 33.6264 11.7496 33.3659 11.4356 33.1897C11.1305 33.0174 10.8154 32.9302 10.4993 32.9302L10.4575 32.9309C10.1238 32.9386 9.80875 33.0475 9.52118 33.2548C9.16323 33.5123 8.95354 33.8292 8.89816 34.1963C8.84458 34.5535 8.92924 34.9762 9.15001 35.4532L9.51046 36.2223C9.65371 36.5277 9.7223 36.7697 9.71373 36.9413C9.70623 37.0958 9.63549 37.2187 9.49689 37.3182C9.31934 37.4464 9.1343 37.4758 8.91388 37.4106C8.68668 37.3441 8.44626 37.1431 8.19906 36.8132C8.02187 36.5768 7.88469 36.3365 7.79146 36.0997C7.69822 35.863 7.64249 35.6108 7.62642 35.3503C7.61677 35.1853 7.55604 35.0666 7.44601 34.9976C7.3442 34.9342 7.2306 34.9132 7.10914 34.9349C6.99233 34.9562 6.88944 35.0147 6.80335 35.1093C6.71547 35.207 6.67332 35.3331 6.67868 35.4847C6.68975 35.7915 6.76405 36.1124 6.89909 36.4377C7.03305 36.7603 7.21274 37.0723 7.43244 37.3651C7.70036 37.7227 7.99258 37.9948 8.30123 38.1745C8.60988 38.3542 8.92603 38.4452 9.24111 38.4452H9.25826C9.58227 38.4417 9.89056 38.3363 10.1746 38.1314C10.5179 37.8842 10.71 37.57 10.7454 37.197C10.7794 36.8394 10.6793 36.4055 10.4482 35.9075L10.0924 35.1443C9.96165 34.8652 9.90485 34.64 9.92414 34.4747C9.94164 34.323 10.0252 34.1924 10.1731 34.0859L10.1738 34.0863Z" fill="white"/>
<path d="M17.9481 38.7919C17.8049 38.6987 17.6659 38.6651 17.5359 38.6921C17.4065 38.719 17.2922 38.8045 17.1965 38.9463L16.1394 40.5066L13.7535 38.9526L14.8105 37.3927C15.0027 37.1087 14.9495 36.8394 14.6641 36.6538C14.5208 36.5606 14.3819 36.527 14.2522 36.5539C14.1232 36.5809 14.0093 36.666 13.9128 36.8079L11.2332 40.763C11.1371 40.9048 11.101 41.0411 11.1257 41.1685C11.1507 41.2964 11.2361 41.4088 11.3793 41.5023C11.6647 41.6876 11.9387 41.6312 12.1309 41.3482L13.2319 39.7235L15.6179 41.2775L14.5172 42.9018C14.3251 43.1855 14.3783 43.4545 14.6634 43.6408C14.7709 43.7109 14.8773 43.7462 14.9795 43.7462C15.0935 43.7462 15.2606 43.7003 15.4082 43.4822L18.0881 39.527C18.1842 39.3855 18.2207 39.2496 18.1975 39.1239C18.1739 38.9961 18.0899 38.8844 17.9485 38.7922L17.9481 38.7919Z" fill="white"/>
<path d="M23.004 40.4233L20.2097 39.725C19.8582 39.637 19.6053 39.7845 19.516 40.1291L18.3589 44.5798C18.2692 44.9241 18.4193 45.1721 18.7708 45.26L21.5651 45.9583C21.6194 45.972 21.6719 45.979 21.7215 45.979C21.9287 45.979 22.0748 45.8568 22.1327 45.6347C22.2045 45.3573 22.0806 45.1566 21.7926 45.0848L19.4592 44.5017L19.8489 43.0038L22.0138 43.5445C22.1559 43.5803 22.2778 43.5701 22.3767 43.5148C22.476 43.4587 22.5442 43.36 22.5807 43.2213C22.6525 42.9432 22.5289 42.7429 22.241 42.6711L20.0758 42.13L20.4437 40.7143L22.7768 41.2971C22.9197 41.3332 23.0426 41.3223 23.1419 41.2649C23.2405 41.2075 23.3091 41.107 23.3459 40.9665C23.3816 40.8296 23.3687 40.7119 23.308 40.617C23.2484 40.5242 23.1462 40.459 23.0044 40.4237L23.004 40.4233Z" fill="white"/>
<path d="M28.2111 45.1938L25.8934 45.2992L25.6916 41.0373C25.6833 40.8681 25.6298 40.7375 25.5319 40.6489C25.4336 40.5596 25.2975 40.519 25.1282 40.5267C24.7863 40.5424 24.5991 40.7466 24.6152 41.0867L24.836 45.7524C24.8438 45.923 24.8981 46.054 24.9967 46.1422C25.0871 46.2228 25.2114 46.2638 25.3658 46.2638C25.3793 46.2638 25.3933 46.2638 25.4076 46.2627L28.2568 46.1335C28.4115 46.1265 28.5312 46.0795 28.6127 45.9937C28.6945 45.9072 28.7327 45.7875 28.7255 45.6376C28.7184 45.4922 28.6702 45.3791 28.5819 45.3013C28.4915 45.2218 28.3669 45.1854 28.2115 45.1942L28.2111 45.1938Z" fill="white"/>
<path d="M32.5072 39.1954C32.4018 39.1482 32.2743 39.1485 32.1278 39.1968L28.1822 40.5C28.0382 40.5477 27.9378 40.6226 27.8839 40.7228C27.8292 40.825 27.8253 40.9473 27.8728 41.0856C27.9211 41.2261 27.9996 41.3231 28.1057 41.3732C28.2115 41.4232 28.3383 41.4243 28.4826 41.3763L29.9487 40.8919L31.3501 44.9717C31.4337 45.2159 31.5998 45.3489 31.8188 45.3489C31.8249 45.3489 31.8313 45.3489 31.8378 45.3489C31.8999 45.3468 31.9664 45.3342 32.0353 45.3115C32.1928 45.2593 32.3022 45.1752 32.3597 45.0611C32.419 44.9437 32.4204 44.8008 32.3636 44.6369L30.9622 40.5575L32.4279 40.0735C32.5783 40.0237 32.6819 39.9449 32.7351 39.8392C32.7869 39.7365 32.7891 39.6147 32.7419 39.477C32.694 39.338 32.6147 39.2431 32.5061 39.1951L32.5072 39.1954Z" fill="white"/>
<path d="M39.3044 40.6818C39.1922 40.6608 39.0719 40.692 38.9486 40.7743L36.9585 42.1034L36.0707 40.8258L37.9173 39.5926C38.1631 39.4283 38.2095 39.1982 38.0452 38.9615C37.8805 38.7251 37.6454 38.6831 37.3996 38.847L35.5531 40.0805L34.7143 38.8732L36.7045 37.5438C36.8266 37.4622 36.8995 37.3648 36.921 37.2541C36.9424 37.1435 36.9113 37.0265 36.8281 36.9067C36.6663 36.6738 36.4326 36.6346 36.1868 36.7988L33.8041 38.3906C33.5047 38.5906 33.4497 38.8736 33.6533 39.1678L36.2915 42.9639C36.394 43.1113 36.5151 43.1989 36.652 43.2245C36.6795 43.2294 36.7073 43.2322 36.7345 43.2322C36.847 43.2322 36.9645 43.1915 37.0842 43.1117L39.4677 41.5199C39.5891 41.4383 39.6624 41.342 39.6849 41.2331C39.7074 41.1227 39.6774 41.0068 39.5952 40.8891C39.5145 40.7722 39.4169 40.7025 39.3055 40.6818H39.3044Z" fill="white"/>
<path d="M44.1522 35.3647L42.7351 35.1448C42.4868 35.1069 42.2657 35.1146 42.0742 35.1668C42.1628 34.8772 42.176 34.5959 42.1131 34.3287C42.0288 33.9711 41.8063 33.6556 41.4522 33.3908C41.0132 33.0637 40.5563 32.9439 40.0937 33.0353C39.6382 33.1257 39.2138 33.4206 38.8327 33.912L37.6899 35.3857C37.5845 35.5216 37.5402 35.6561 37.5581 35.786C37.5763 35.9156 37.6556 36.0336 37.7942 36.137L41.6051 38.978C41.7245 39.067 41.8431 39.1121 41.9581 39.1121C41.9763 39.1121 41.9942 39.1111 42.0113 39.1086C42.1431 39.0925 42.2628 39.0158 42.3671 38.8813C42.4711 38.7472 42.5139 38.6138 42.4947 38.4845C42.4757 38.3563 42.3957 38.239 42.2575 38.1368L40.8189 37.064L41.2815 36.4672C41.4062 36.3065 41.5333 36.1937 41.6587 36.1317C41.778 36.0736 41.9413 36.0599 42.1442 36.0907L43.8621 36.352C43.9982 36.3776 44.1208 36.3716 44.2269 36.3345C44.3319 36.297 44.4287 36.2224 44.5141 36.1128C44.6834 35.8946 44.6438 35.723 44.5802 35.6169C44.4959 35.4775 44.3519 35.3924 44.1522 35.364V35.3647ZM41.1915 34.8124C41.2004 35.0386 41.0907 35.301 40.8646 35.5923L40.1244 36.5467L38.7369 35.5128L39.4767 34.5581C39.9265 33.9785 40.3552 33.872 40.8264 34.223C41.0596 34.3967 41.1825 34.5949 41.1911 34.812L41.1915 34.8124Z" fill="white"/>
<path d="M30.1084 31.4568C32.9266 31.4568 35.2194 29.2091 35.2194 26.4465C35.2194 26.1747 34.9939 25.9537 34.7167 25.9537C34.4395 25.9537 34.2141 26.1747 34.2141 26.4465C34.2141 28.6658 32.3722 30.4713 30.1088 30.4713C27.8454 30.4713 26.0031 28.6658 26.0031 26.4465V25.36C27.2034 24.8858 28.991 23.0142 28.991 21.3934C28.991 19.4881 26.4479 15.5389 25.5001 15.5389C24.6085 15.5389 22.0096 19.6121 22.0096 21.3934C22.0096 22.9638 23.7983 24.847 24.9975 25.3516V26.4465C24.9975 28.6658 23.1556 30.4713 20.8922 30.4713C18.6288 30.4713 16.7865 28.6658 16.7865 26.4465C16.7865 26.1747 16.5611 25.9537 16.2839 25.9537C16.0067 25.9537 15.7812 26.1747 15.7812 26.4465C15.7812 29.2091 18.074 31.4568 20.8922 31.4568C22.8637 31.4568 24.6503 30.3459 25.5001 28.6095C26.35 30.3459 28.1365 31.4568 30.1084 31.4568ZM23.8394 19.1431C23.7786 19.0675 23.7918 18.9572 23.8694 18.8976C23.9469 18.8381 24.0594 18.8514 24.1201 18.927L25.3219 20.4271V17.2705C25.3219 17.1742 25.4019 17.0957 25.5005 17.0957C25.5991 17.0957 25.6791 17.1742 25.6791 17.2705V20.4271L26.8812 18.927C26.9105 18.8903 26.953 18.8668 27.0001 18.8616C27.0473 18.856 27.0941 18.8689 27.1316 18.898C27.1691 18.9267 27.1927 18.9684 27.1984 19.0146C27.2041 19.0612 27.1909 19.1067 27.1616 19.1435L25.6791 20.9937V23.6408L27.4056 21.4862C27.4663 21.4105 27.5789 21.3972 27.656 21.4567C27.6935 21.4855 27.7171 21.5271 27.7228 21.5734C27.7285 21.62 27.7153 21.6655 27.686 21.7023L25.6484 24.2453L25.633 24.2596C25.6227 24.2712 25.6087 24.2817 25.5894 24.2932C25.5823 24.2971 25.5759 24.302 25.5734 24.3052C25.5509 24.3153 25.5291 24.3206 25.5073 24.3216L25.4944 24.3188L25.4812 24.3195C25.4755 24.3195 25.4701 24.3206 25.4644 24.3216C25.4119 24.3195 25.3637 24.2957 25.3308 24.2551L23.2856 21.7026C23.2249 21.627 23.2381 21.5166 23.3156 21.4567C23.3482 21.4315 23.3871 21.4193 23.4257 21.4193C23.4785 21.4193 23.5311 21.442 23.5661 21.4858L25.3219 23.6772V20.9937L23.8397 19.1435L23.8394 19.1431Z" fill="white"/>
<path d="M7.68585 31.103C7.74337 31.103 7.79981 31.0936 7.85411 31.0747C8.11525 30.9836 8.25243 30.7013 8.15955 30.4453C7.46008 28.5131 7.10535 26.4835 7.10535 24.413C7.10535 21.4991 7.79195 18.7183 9.14622 16.1483C9.2734 15.907 9.17659 15.6089 8.9301 15.4843C8.68361 15.3603 8.37996 15.4552 8.25314 15.6961C6.84457 18.3694 6.1001 21.3839 6.1001 24.4133C6.1001 26.5963 6.47412 28.7369 7.21216 30.7752C7.28325 30.9714 7.47366 31.103 7.68585 31.103Z" fill="white"/>
<path d="M42.2591 15.1096C42.1301 15.0721 41.9947 15.0861 41.8765 15.1491C41.7586 15.2118 41.6725 15.3162 41.6343 15.4423C41.596 15.5684 41.6103 15.7018 41.6746 15.8174C43.1268 18.4381 43.8945 21.4109 43.8945 24.4134C43.8945 26.1929 43.6308 27.95 43.1114 29.6367C43.0314 29.8969 43.1822 30.1722 43.4472 30.2506C43.4944 30.2646 43.5433 30.272 43.593 30.272C43.8127 30.272 44.0106 30.1281 44.0742 29.9218C44.6222 28.1426 44.9001 26.2892 44.9001 24.4134C44.9001 21.2473 44.0902 18.1121 42.5581 15.347C42.4941 15.2314 42.388 15.147 42.2591 15.1096Z" fill="white"/>
</g>
<defs>
<clipPath id="clip0_85_677">
<rect width="51" height="50" fill="white"/>
</clipPath>
</defs>
</svg>
