<svg width="81" height="79" viewBox="0 0 81 79" fill="none" xmlns="http://www.w3.org/2000/svg">
<g clip-path="url(#clip0_143_375)">
<path d="M40.2207 0C18.043 0 0 17.6893 0 39.4321C0 61.1749 18.043 78.8642 40.2207 78.8642C62.3984 78.8642 80.4415 61.1749 80.4415 39.4321C80.4415 17.6893 62.3984 0 40.2207 0ZM78.888 39.4321C78.888 60.3353 61.542 77.3412 40.2207 77.3412C18.8995 77.3412 1.55345 60.3353 1.55345 39.4321C1.55345 18.5289 18.8995 1.52299 40.2207 1.52299C61.542 1.52299 78.888 18.5289 78.888 39.4321Z" fill="#4A9B8D"/>
<path d="M17.5469 21.4252C18.2175 22.093 18.9325 22.557 19.6729 22.8056C20.0791 22.9415 20.4944 23.0106 20.9068 23.0106C21.2517 23.0106 21.6005 22.9625 21.9425 22.8675C22.6941 22.6598 23.4311 22.2107 24.1321 21.5329C24.4634 21.2136 24.7778 20.8479 25.0669 20.4457C25.3576 20.0403 25.5847 19.6569 25.7424 19.3067C25.8371 19.0973 25.8754 18.7736 25.521 18.4212L23.3179 16.2286C23.1539 16.0657 22.9787 15.9823 22.7939 15.9812C22.6136 15.9812 22.4389 16.0618 22.2744 16.2215L20.7389 17.7041C20.5654 17.8715 20.4764 18.0461 20.4752 18.2234C20.4735 18.3847 20.5474 18.5438 20.6871 18.6835C20.8392 18.8349 21.0083 18.9117 21.1942 18.9117C21.3683 18.9067 21.5402 18.8239 21.7041 18.6653L22.7054 17.698L24.1135 19.099C23.8385 19.5989 23.4971 20.0474 23.0976 20.4347C22.4023 21.1059 21.6923 21.4263 20.9829 21.3848C20.2662 21.3451 19.5298 20.9534 18.7939 20.2215C18.0743 19.5055 17.6861 18.7852 17.6394 18.0798C17.5931 17.3859 17.8974 16.7175 18.5431 16.0944C18.835 15.8121 19.1398 15.5862 19.4497 15.4221C19.7563 15.2597 20.0977 15.1454 20.4741 15.0807C20.722 15.0227 20.8939 14.9029 20.9852 14.7244C21.0702 14.5565 21.086 14.3764 21.0319 14.1891C20.9795 14.0091 20.8764 13.8605 20.7248 13.7478C20.5643 13.6284 20.3614 13.5843 20.14 13.6202C19.625 13.7008 19.1359 13.8676 18.6851 14.1173C18.24 14.3643 17.8292 14.6681 17.4641 15.0211C16.7975 15.6646 16.3513 16.3623 16.1366 17.0943C15.9214 17.8312 15.936 18.5808 16.1794 19.3216C16.4206 20.0552 16.8815 20.7634 17.5481 21.4274L17.5469 21.4252Z" fill="#4A9B8D"/>
<path d="M28.0547 17.3451C28.2412 17.8047 28.5528 17.9014 28.781 17.9014C28.8994 17.9014 29.0284 17.8749 29.1636 17.8224C29.4155 17.724 29.5845 17.5782 29.6657 17.3882C29.7457 17.1998 29.7355 16.9777 29.6341 16.728L28.5782 14.1312L29.6983 13.6937C30.002 13.5749 30.2674 13.5235 30.4861 13.5418C30.6968 13.5578 30.9289 13.6694 31.1763 13.8726L33.2819 15.5945C33.4476 15.7398 33.6183 15.8298 33.789 15.8624C33.9637 15.8961 34.1559 15.8724 34.361 15.7912C34.7712 15.6299 34.8596 15.3664 34.8613 15.1736C34.8636 14.9178 34.739 14.688 34.4934 14.4913L32.759 13.0645C32.4553 12.8159 32.1499 12.6496 31.8474 12.5679C32.2074 12.2469 32.4582 11.8773 32.5945 11.4663C32.7776 10.915 32.7388 10.3113 32.479 9.67157C32.1561 8.87831 31.6378 8.35186 30.9374 8.1077C30.246 7.8674 29.4279 7.92817 28.5061 8.28834L25.7395 9.3694C25.4842 9.46939 25.313 9.61633 25.2296 9.80525C25.1467 9.99473 25.1563 10.2174 25.2577 10.4676L28.0536 17.3451H28.0547ZM30.1891 9.51469C30.5204 9.61743 30.7745 9.88038 30.9441 10.2974C31.1154 10.7178 31.1171 11.0835 30.9487 11.384C30.7734 11.6973 30.4077 11.9641 29.8606 12.1784L28.0688 12.8789L27.0512 10.3759L28.843 9.67544C29.389 9.46165 29.8415 9.40752 30.1891 9.51524V9.51469Z" fill="#4A9B8D"/>
<path d="M37.3093 14.9819C37.4625 15.1293 37.6823 15.2039 37.9612 15.2039L42.5263 15.1542C42.9951 15.1487 43.2611 14.8863 43.256 14.435C43.2538 14.2123 43.1878 14.0372 43.0605 13.9151C42.9337 13.7936 42.7534 13.7317 42.5106 13.7317L38.7123 13.7737L38.6847 11.3354L42.208 11.2962C42.4429 11.294 42.6266 11.2288 42.7545 11.1012C42.8791 10.9758 42.941 10.7996 42.9382 10.5775C42.9354 10.3521 42.8678 10.1753 42.7371 10.0527C42.6108 9.93448 42.4322 9.87427 42.1922 9.87427L38.6689 9.91239L38.6424 7.60884L42.4407 7.56796C42.9095 7.56244 43.1754 7.29562 43.1698 6.83602C43.167 6.61395 43.0988 6.43994 42.967 6.31896C42.8407 6.20406 42.6627 6.14551 42.439 6.14551L37.8761 6.19522C37.3048 6.2013 36.9802 6.52612 36.9864 7.08681L37.0692 14.3306C37.0721 14.6123 37.1532 14.831 37.3098 14.9813L37.3093 14.9819Z" fill="#4A9B8D"/>
<path d="M46.0985 15.8299L50.3988 17.2827C50.5075 17.3198 50.6112 17.3385 50.707 17.3385C50.8028 17.3385 50.8924 17.3198 50.9741 17.2822C51.1375 17.2065 51.258 17.0596 51.3335 16.8469C51.4834 16.4193 51.3155 16.0884 50.8721 15.9382L47.2817 14.7245L48.0925 12.4193L51.4237 13.5451C51.6463 13.6203 51.8418 13.6192 52.0041 13.5418C52.1646 13.4656 52.2835 13.3198 52.3579 13.1087C52.5072 12.6817 52.3393 12.3503 51.897 12.2006L48.5653 11.0748L49.3316 8.89716L52.9225 10.1108C53.1428 10.1854 53.3366 10.1832 53.5 10.1053C53.6629 10.0274 53.784 9.87824 53.8601 9.6628C53.9339 9.45289 53.9294 9.26673 53.8466 9.10929C53.7654 8.95517 53.6133 8.84027 53.3947 8.76624L49.0949 7.3123C48.5551 7.13001 48.1382 7.32887 47.9511 7.85919L45.5423 14.708C45.3536 15.2449 45.5513 15.6437 46.099 15.8305L46.0985 15.8299Z" fill="#4A9B8D"/>
<path d="M53.3811 18.9863C53.5716 19.1487 53.7699 19.2211 53.9671 19.2012C54.161 19.1818 54.3458 19.0752 54.5159 18.883L58.1452 14.7924L57.6454 22.0185C57.6324 22.2173 57.6442 22.3753 57.682 22.5007C57.7237 22.6388 57.82 22.7731 57.9682 22.8985C58.1057 23.0167 58.2607 23.0763 58.4291 23.0763C58.4584 23.0763 58.4883 23.0741 58.5199 23.0708C58.712 23.0465 58.8895 22.9432 59.0484 22.7648L64.1274 17.0407C64.466 16.6584 64.4407 16.2513 64.057 15.9243C63.6732 15.5978 63.2591 15.6293 62.9199 16.0105L59.2986 20.0928L59.7905 12.8827C59.8102 12.6905 59.8029 12.5336 59.769 12.4143C59.7302 12.2834 59.6389 12.1563 59.498 12.037C59.3228 11.8867 59.1267 11.8221 58.9182 11.8447C58.7154 11.8657 58.5255 11.9735 58.3548 12.1662L53.3084 17.8533C52.9647 18.2416 52.9912 18.6543 53.3806 18.9868L53.3811 18.9863Z" fill="#4A9B8D"/>
<path d="M16.0468 53.7638C16.3601 53.539 16.7055 53.4793 17.074 53.5859C17.4639 53.6992 17.8318 53.9842 18.1671 54.4322C18.3913 54.7311 18.5643 55.0377 18.6815 55.3437C18.7982 55.6475 18.8658 55.9839 18.8827 56.3485C18.9035 56.6082 18.9959 56.7982 19.1565 56.9142C19.3103 57.0258 19.4856 57.07 19.6755 57.0462C19.858 57.023 20.0169 56.9429 20.1482 56.8081C20.2851 56.6673 20.3522 56.4839 20.3482 56.269C20.3578 55.805 20.2772 55.3387 20.1093 54.883C19.9408 54.43 19.6969 53.9886 19.3836 53.5705C18.9852 53.0385 18.5322 52.6275 18.0369 52.3496C17.5557 52.0779 17.0588 51.9403 16.5601 51.9403L16.4942 51.9414C15.9679 51.9536 15.4709 52.1254 15.0174 52.4524C14.4528 52.8584 14.122 53.3583 14.0347 53.9373C13.9502 54.5007 14.0837 55.1675 14.4319 55.9199L15.0004 57.133C15.2264 57.6147 15.3346 57.9964 15.3211 58.2671C15.3092 58.5107 15.1977 58.7046 14.979 58.8614C14.699 59.0636 14.4071 59.11 14.0595 59.0073C13.7011 58.9023 13.3219 58.5852 12.932 58.0649C12.6525 57.692 12.4362 57.313 12.2891 56.9396C12.142 56.5662 12.0541 56.1684 12.0288 55.7575C12.0136 55.4973 11.9178 55.31 11.7442 55.2012C11.5836 55.1012 11.4045 55.068 11.2129 55.1023C11.0286 55.136 10.8664 55.2282 10.7306 55.3774C10.592 55.5315 10.5255 55.7304 10.5339 55.9696C10.5514 56.4535 10.6686 56.9595 10.8816 57.4727C11.0929 57.9815 11.3763 58.4737 11.7228 58.9355C12.1454 59.4995 12.6063 59.9287 13.0931 60.2121C13.58 60.4955 14.0786 60.6391 14.5756 60.6391H14.6026C15.1137 60.6336 15.6 60.4673 16.0479 60.1441C16.5894 59.7541 16.8925 59.2586 16.9483 58.6703C17.0018 58.1063 16.8441 57.4219 16.4795 56.6363L15.9183 55.4326C15.7121 54.9924 15.6225 54.6372 15.6529 54.3764C15.6805 54.1372 15.8124 53.9312 16.0457 53.7633L16.0468 53.7638Z" fill="#4A9B8D"/>
<path d="M28.3089 61.186C28.0829 61.039 27.8638 60.986 27.6587 61.0285C27.4547 61.0711 27.2744 61.2058 27.1234 61.4296L25.4561 63.8906L21.6928 61.4395L23.36 58.9791C23.6632 58.5311 23.5792 58.1063 23.129 57.8135C22.9031 57.6666 22.6839 57.6135 22.4794 57.6561C22.276 57.6986 22.0962 57.8328 21.9441 58.0566L17.7176 64.2949C17.566 64.5186 17.5091 64.7335 17.548 64.9346C17.5874 65.1362 17.7221 65.3136 17.948 65.4611C18.3982 65.7533 18.8304 65.6643 19.1335 65.218L20.8701 62.6554L24.6335 65.1064L22.8974 67.6685C22.5943 68.1159 22.6783 68.5402 23.1279 68.8341C23.2975 68.9445 23.4654 69.0003 23.6266 69.0003C23.8063 69.0003 24.07 68.928 24.3027 68.5838L28.5298 62.3455C28.6813 62.1223 28.7388 61.908 28.7022 61.7096C28.665 61.508 28.5326 61.3318 28.3095 61.1865L28.3089 61.186Z" fill="#4A9B8D"/>
<path d="M36.2837 63.7592L31.8763 62.6577C31.3219 62.519 30.923 62.7516 30.7821 63.2951L28.9571 70.3152C28.8156 70.8582 29.0523 71.2493 29.6067 71.3879L34.0141 72.4894C34.0998 72.511 34.1826 72.522 34.2609 72.522C34.5877 72.522 34.8182 72.3292 34.9094 71.979C35.0227 71.5415 34.8272 71.225 34.373 71.1117L30.6925 70.192L31.3073 67.8293L34.7218 68.6822C34.9461 68.7386 35.1382 68.7226 35.2943 68.6353C35.4509 68.5469 35.5585 68.3911 35.616 68.1724C35.7293 67.7337 35.5343 67.4178 35.0802 67.3045L31.6651 66.451L32.2454 64.2182L35.9254 65.1374C36.1507 65.1943 36.3446 65.1772 36.5012 65.0866C36.6567 64.996 36.7649 64.8375 36.8229 64.6159C36.8793 64.3999 36.859 64.2143 36.7632 64.0646C36.6691 63.9182 36.508 63.8155 36.2843 63.7597L36.2837 63.7592Z" fill="#4A9B8D"/>
<path d="M44.4965 71.2835L40.8408 71.4498L40.5224 64.7275C40.5095 64.4607 40.425 64.2547 40.2706 64.1149C40.1156 63.974 39.901 63.91 39.6339 63.9221C39.0946 63.947 38.7994 64.269 38.8248 64.8054L39.173 72.1646C39.1854 72.4336 39.271 72.6402 39.4265 72.7794C39.5691 72.9065 39.7652 72.9711 40.0086 72.9711C40.03 72.9711 40.052 72.9711 40.0745 72.9695L44.5686 72.7656C44.8126 72.7546 45.0014 72.6806 45.1298 72.5452C45.2589 72.4088 45.3192 72.2198 45.3079 71.9834C45.2966 71.7542 45.2206 71.5757 45.0814 71.4531C44.9388 71.3277 44.7422 71.2703 44.4971 71.2841L44.4965 71.2835Z" fill="#4A9B8D"/>
<path d="M51.2729 61.8224C51.1067 61.7478 50.9055 61.7484 50.6745 61.8246L44.4511 63.8801C44.224 63.9553 44.0657 64.0735 43.9806 64.2315C43.8944 64.3928 43.8882 64.5856 43.9632 64.8038C44.0392 65.0253 44.1632 65.1783 44.3305 65.2573C44.4973 65.3363 44.6973 65.338 44.925 65.2623L47.2374 64.4983L49.4479 70.9333C49.5797 71.3183 49.8417 71.5283 50.1871 71.5283C50.1967 71.5283 50.2068 71.5283 50.217 71.5283C50.315 71.5249 50.4198 71.5051 50.5286 71.4691C50.777 71.3868 50.9495 71.2543 51.0402 71.0742C51.1337 70.8891 51.136 70.6637 51.0464 70.4052L48.8359 63.9707L51.1478 63.2073C51.385 63.1289 51.5484 63.0046 51.6324 62.8377C51.7141 62.6759 51.7175 62.4837 51.6431 62.2666C51.5676 62.0473 51.4425 61.8975 51.2712 61.8219L51.2729 61.8224Z" fill="#4A9B8D"/>
<path d="M61.994 64.1668C61.8171 64.1337 61.6272 64.1829 61.4328 64.3127L58.2938 66.4091L56.8936 64.3939L59.8061 62.4489C60.1938 62.1898 60.267 61.8268 60.0078 61.4534C59.7481 61.0805 59.3773 61.0142 58.9897 61.2728L56.0772 63.2184L54.7542 61.3142L57.8932 59.2173C58.0859 59.0885 58.2008 58.935 58.2346 58.7604C58.2684 58.5859 58.2194 58.4014 58.0881 58.2124C57.8329 57.8451 57.4644 57.7832 57.0767 58.0423L53.3185 60.553C52.8463 60.8684 52.7595 61.3148 53.0807 61.7788L57.2418 67.7663C57.4035 67.9989 57.5945 68.137 57.8104 68.1773C57.8537 68.1851 57.8977 68.1895 57.9405 68.1895C58.118 68.1895 58.3034 68.1254 58.4921 67.9995L62.2515 65.4888C62.4431 65.3601 62.5586 65.2081 62.5941 65.0363C62.6296 64.8623 62.5823 64.6795 62.4527 64.4939C62.3253 64.3094 62.1715 64.1994 61.9957 64.1668H61.994Z" fill="#4A9B8D"/>
<path d="M69.6403 55.7801L67.4051 55.4332C67.0135 55.3736 66.6647 55.3857 66.3627 55.468C66.5024 55.0112 66.5233 54.5676 66.4241 54.1461C66.2911 53.5821 65.9401 53.0844 65.3817 52.6668C64.6892 52.1508 63.9686 51.9619 63.2389 52.1061C62.5205 52.2486 61.8511 52.7137 61.2499 53.4888L59.4474 55.8133C59.2812 56.0276 59.2113 56.2397 59.2395 56.4447C59.2682 56.6491 59.3933 56.8353 59.6119 56.9982L65.6229 61.4794C65.8111 61.6197 65.9982 61.6909 66.1796 61.6909C66.2083 61.6909 66.2365 61.6893 66.2635 61.6854C66.4715 61.66 66.6602 61.539 66.8247 61.3269C66.9887 61.1153 67.0563 60.9048 67.0259 60.701C66.996 60.4988 66.8698 60.3138 66.6518 60.1525L64.3827 58.4604L65.1124 57.5191C65.309 57.2656 65.5096 57.0877 65.7074 56.9899C65.8956 56.8982 66.1531 56.8767 66.4731 56.9253L69.1828 57.3374C69.3975 57.3777 69.5908 57.3683 69.7581 57.3098C69.9238 57.2507 70.0765 57.133 70.2111 56.9601C70.4782 56.6159 70.4157 56.3453 70.3154 56.1779C70.1824 55.958 69.9553 55.8238 69.6403 55.779V55.7801ZM64.9704 54.909C64.9845 55.2659 64.8115 55.6796 64.4548 56.1392L63.2874 57.6445L61.0989 56.0138L62.2658 54.5079C62.9752 53.5937 63.6513 53.4258 64.3945 53.9793C64.7625 54.2533 64.9563 54.5659 64.9698 54.9084L64.9704 54.909Z" fill="#4A9B8D"/>
<path d="M47.4896 49.6163C51.9347 49.6163 55.551 46.0709 55.551 41.7135C55.551 41.2848 55.1955 40.9363 54.7582 40.9363C54.321 40.9363 53.9654 41.2848 53.9654 41.7135C53.9654 45.2141 51.0603 48.0618 47.4902 48.0618C43.9201 48.0618 41.0144 45.2141 41.0144 41.7135V39.9999C42.9076 39.252 45.7271 36.2999 45.7271 33.7434C45.7271 30.7382 41.7159 24.5093 40.221 24.5093C38.8146 24.5093 34.7155 30.9338 34.7155 33.7434C34.7155 36.2204 37.5367 39.1907 39.4282 39.9867V41.7135C39.4282 45.2141 36.5231 48.0618 32.953 48.0618C29.3829 48.0618 26.4772 45.2141 26.4772 41.7135C26.4772 41.2848 26.1216 40.9363 25.6844 40.9363C25.2471 40.9363 24.8916 41.2848 24.8916 41.7135C24.8916 46.0709 28.5079 49.6163 32.953 49.6163C36.0627 49.6163 38.8806 47.864 40.221 45.1252C41.5615 47.864 44.3793 49.6163 47.4896 49.6163ZM37.6015 30.1941C37.5057 30.0748 37.5266 29.9008 37.6488 29.8069C37.7711 29.713 37.9486 29.734 38.0444 29.8533L39.9399 32.2193V27.2404C39.9399 27.0885 40.0661 26.9647 40.2216 26.9647C40.3771 26.9647 40.5033 27.0885 40.5033 27.2404V32.2193L42.3994 29.8533C42.4456 29.7953 42.5126 29.7583 42.587 29.75C42.6614 29.7411 42.7352 29.7616 42.7943 29.8074C42.8535 29.8527 42.8907 29.9185 42.8997 29.9914C42.9087 30.0649 42.8879 30.1367 42.8417 30.1947L40.5033 33.1131V37.2882L43.2265 33.8897C43.3223 33.7704 43.4998 33.7494 43.6215 33.8433C43.6807 33.8886 43.7178 33.9544 43.7269 34.0273C43.7359 34.1008 43.715 34.1726 43.6688 34.2306L40.4549 38.2416L40.4306 38.2643C40.4143 38.2825 40.3923 38.2991 40.3619 38.3173C40.3506 38.3234 40.3405 38.3311 40.3365 38.3361C40.301 38.3521 40.2667 38.3604 40.2323 38.362L40.212 38.3576L40.1912 38.3587C40.1821 38.3587 40.1737 38.3604 40.1647 38.362C40.0819 38.3587 40.0058 38.3212 39.9539 38.2571L36.7282 34.2311C36.6324 34.1118 36.6532 33.9378 36.7755 33.8433C36.8268 33.8036 36.8882 33.7842 36.949 33.7842C37.0324 33.7842 37.1152 33.8201 37.1705 33.8892L39.9399 37.3456V33.1131L37.6021 30.1947L37.6015 30.1941Z" fill="#4A9B8D"/>
<path d="M12.1233 49.0584C12.214 49.0584 12.303 49.0435 12.3886 49.0137C12.8005 48.87 13.0169 48.4248 12.8704 48.021C11.7672 44.9734 11.2076 41.7721 11.2076 38.5063C11.2076 33.9102 12.2906 29.5241 14.4267 25.4705C14.6273 25.0899 14.4746 24.6198 14.0858 24.4232C13.697 24.2276 13.2181 24.3773 13.018 24.7574C10.7963 28.9739 9.62207 33.7285 9.62207 38.5068C9.62207 41.95 10.212 45.3263 11.3761 48.5414C11.4882 48.8507 11.7886 49.0584 12.1233 49.0584Z" fill="#4A9B8D"/>
<path d="M66.6543 23.8321C66.4509 23.773 66.2374 23.7951 66.0509 23.8946C65.8649 23.9934 65.7291 24.1581 65.6688 24.3569C65.6086 24.5558 65.6311 24.7663 65.7325 24.9486C68.023 29.0822 69.2338 33.7711 69.2338 38.5069C69.2338 41.3137 68.818 44.0851 67.9988 46.7455C67.8725 47.156 68.1103 47.5902 68.5284 47.7139C68.6028 47.736 68.68 47.7476 68.7583 47.7476C69.1048 47.7476 69.417 47.5206 69.5173 47.1952C70.3816 44.3889 70.82 41.4656 70.82 38.5069C70.82 33.5131 69.5426 28.5679 67.1259 24.2067C67.0251 24.0244 66.8577 23.8912 66.6543 23.8321Z" fill="#4A9B8D"/>
</g>
<defs>
<clipPath id="clip0_143_375">
<rect width="80.4415" height="78.8642" fill="white"/>
</clipPath>
</defs>
</svg>
