<svg width="65" height="67" viewBox="0 0 65 67" fill="none" xmlns="http://www.w3.org/2000/svg">
<path fill-rule="evenodd" clip-rule="evenodd" d="M14.1123 1.97069C26.2342 0.61589 38.7655 0.61589 50.8874 1.97069C57.652 2.72674 63.1095 8.05644 63.9038 14.8478C65.3532 27.2403 65.3532 39.7596 63.9038 52.1521C63.1095 58.9435 57.652 64.2732 50.8874 65.0292C38.7655 66.384 26.2342 66.384 14.1123 65.0292C7.34762 64.2732 1.89017 58.9435 1.09585 52.1521C-0.353566 39.7596 -0.353566 27.2403 1.09585 14.8478C1.89017 8.05644 7.34763 2.72674 14.1123 1.97069ZM18.5563 19.5564C19.7131 18.3995 21.5887 18.3995 22.7456 19.5564L32.4999 29.3107L42.2543 19.5564C43.4111 18.3996 45.2867 18.3996 46.4435 19.5564C47.6003 20.7132 47.6003 22.5888 46.4435 23.7456L36.6892 33.5L46.4435 43.2543C47.6003 44.4111 47.6003 46.2867 46.4435 47.4435C45.2866 48.6003 43.4111 48.6003 42.2542 47.4435L32.4999 37.6892L22.7456 47.4435C21.5888 48.6004 19.7132 48.6004 18.5563 47.4435C17.3995 46.2867 17.3995 44.4111 18.5563 43.2543L28.3107 33.5L18.5563 23.7456C17.3995 22.5888 17.3995 20.7132 18.5563 19.5564Z" fill="#333333"/>
</svg>
