<svg width="85" height="85" viewBox="0 0 85 85" fill="none" xmlns="http://www.w3.org/2000/svg">
<path d="M52.8315 29.7121C53.6838 30.0261 54.25 30.838 54.25 31.7463L54.25 53.2537C54.25 54.162 53.6838 54.974 52.8315 55.2879C51.219 55.882 49.4476 55.882 47.8351 55.2879C46.9829 54.974 46.4167 54.162 46.4167 53.2537L46.4167 31.7463C46.4167 30.838 46.9829 30.0261 47.8351 29.7121C49.4476 29.118 51.219 29.118 52.8315 29.7121Z" fill="white"/>
<path d="M37.1649 29.7121C38.0171 30.0261 38.5833 30.838 38.5833 31.7463L38.5833 53.2537C38.5833 54.162 38.0171 54.974 37.1649 55.2879C35.5524 55.882 33.781 55.882 32.1685 55.2879C31.3162 54.974 30.75 54.162 30.75 53.2537L30.75 31.7463C30.75 30.838 31.3162 30.0261 32.1685 29.7121C33.781 29.118 35.5524 29.118 37.1649 29.7121Z" fill="white"/>
<circle cx="42.5" cy="42.5" r="42.5" fill="black" fill-opacity="0.4"/>
</svg>
