<svg width="85" height="85" viewBox="0 0 85 85" fill="none" xmlns="http://www.w3.org/2000/svg">
<path d="M48.2757 36.47C48.7109 36.6303 49 37.045 49 37.5088L49 48.4913C49 48.9551 48.7109 49.3697 48.2757 49.53C47.4523 49.8334 46.5477 49.8334 45.7243 49.53C45.2891 49.3697 45 48.9551 45 48.4913L45 37.5088C45 37.045 45.2891 36.6303 45.7243 36.47C46.5477 36.1667 47.4523 36.1667 48.2757 36.47Z" fill="white"/>
<path d="M40.2757 36.47C40.7109 36.6303 41 37.045 41 37.5088L41 48.4913C41 48.9551 40.7109 49.3697 40.2757 49.53C39.4523 49.8334 38.5477 49.8334 37.7243 49.53C37.2891 49.3697 37 48.9551 37 48.4913L37 37.5088C37 37.045 37.2891 36.6303 37.7243 36.47C38.5477 36.1667 39.4523 36.1667 40.2757 36.47Z" fill="white"/>
<path d="M56.3961 45.3996C58.2931 43.9318 58.2931 41.0679 56.3961 39.6001C50.6633 35.1642 44.2618 31.6679 37.4312 29.2419L36.1833 28.7987C33.796 27.9508 31.2744 29.5661 30.9512 32.0304C30.0482 38.9158 30.0482 46.0838 30.9512 52.9692C31.2744 55.4336 33.796 57.0488 36.1833 56.2009L37.4312 55.7577C44.2618 53.3318 50.6633 49.8354 56.3961 45.3996Z" fill="white"/>
<circle cx="42.5" cy="42.5" r="42.5" fill="black" fill-opacity="0.4"/>
</svg>
